<?xml version="1.0" standalone="no"?>
<!DOCTYPE svg PUBLIC "-//W3C//DTD SVG 20010904//EN"
 "http://www.w3.org/TR/2001/REC-SVG-20010904/DTD/svg10.dtd">
<svg version="1.0" xmlns="http://www.w3.org/2000/svg"
 width="500.000000pt" height="500.000000pt" viewBox="0 0 500.000000 500.000000"
 preserveAspectRatio="xMidYMid meet">

<g transform="translate(0.000000,500.000000) scale(0.100000,-0.100000)"
fill="#000000" stroke="none">
<path d="M2167 4620 c-127 -23 -286 -74 -385 -124 -395 -199 -650 -622 -713
-1181 -6 -59 -11 -312 -12 -610 -2 -510 -2 -510 20 -556 31 -61 78 -107 138
-135 46 -22 64 -24 205 -24 150 0 157 1 216 29 38 18 72 43 92 69 60 76 62 88
62 486 0 418 -2 429 -80 506 -67 68 -111 80 -292 80 l-148 0 0 46 c0 63 27
242 51 339 117 467 380 750 793 850 273 67 693 51 924 -35 350 -130 576 -413
676 -843 17 -73 46 -280 46 -328 l0 -29 -157 0 c-145 0 -162 -2 -208 -24 -60
-28 -127 -98 -146 -152 -11 -30 -14 -120 -14 -414 0 -338 2 -379 18 -413 27
-57 86 -118 142 -143 46 -22 64 -24 206 -24 l156 0 64 32 c72 37 122 94 140
160 7 29 9 205 6 582 -4 591 -8 637 -68 864 -71 271 -184 477 -354 648 -173
174 -367 277 -633 335 -83 18 -137 22 -367 25 -235 3 -284 1 -378 -16z"/>
<path d="M2420 2985 l0 -887 -37 8 c-21 5 -81 9 -133 9 -89 0 -101 -3 -165
-34 -169 -84 -298 -277 -266 -399 34 -123 256 -161 438 -75 70 33 131 89 170
154 63 106 63 102 63 856 0 461 3 683 10 683 6 0 39 -14 73 -31 221 -111 358
-265 396 -447 32 -154 -7 -373 -106 -591 -18 -41 -32 -75 -30 -77 2 -2 26 31
54 74 117 174 164 311 164 472 -1 180 -64 328 -211 495 -129 145 -227 293
-327 494 l-93 184 0 -888z"/>
<path d="M898 2822 l-78 -46 0 -187 0 -186 78 -52 c43 -28 81 -51 85 -51 4 0
7 128 7 285 0 157 -3 285 -7 284 -5 0 -43 -21 -85 -47z"/>
<path d="M4030 2585 c0 -157 3 -285 7 -285 4 0 42 23 85 51 l78 52 0 186 0
186 -79 48 c-44 26 -82 47 -85 47 -3 0 -6 -128 -6 -285z"/>
<path d="M2675 1015 c-97 -239 -120 -283 -147 -272 -14 5 -173 226 -167 231 2
1 18 8 36 15 47 19 75 54 80 104 7 58 -16 101 -70 129 -41 23 -48 23 -464 26
l-423 3 -2 -58 c0 -32 -1 -67 -2 -77 -2 -35 21 -27 32 12 15 51 51 82 101 89
l41 6 0 -226 c0 -124 -3 -232 -6 -241 -3 -8 -21 -18 -40 -22 -74 -14 -27 -24
111 -24 90 0 145 4 145 10 0 6 -9 10 -20 10 -11 0 -29 9 -40 20 -19 19 -20 33
-20 245 l0 225 30 0 c17 0 44 -7 59 -15 28 -14 61 -68 61 -99 0 -9 7 -16 15
-16 12 0 15 14 15 70 0 77 12 88 50 50 19 -19 20 -33 20 -230 0 -197 -1 -211
-20 -230 -11 -11 -27 -20 -35 -20 -8 0 -15 -4 -15 -10 0 -6 52 -10 135 -10 74
0 135 3 135 8 0 4 -15 14 -33 22 l-32 15 -3 103 c-2 67 1 102 8 102 6 0 47
-56 92 -125 l81 -125 149 0 c81 0 148 4 148 8 0 4 -13 13 -30 19 -35 13 -37
29 -14 91 l17 43 90 -3 90 -3 20 -52 c22 -59 14 -83 -29 -83 -13 0 -24 -4 -24
-10 0 -6 95 -10 265 -10 146 0 265 4 265 9 0 4 -14 12 -32 17 -39 11 -46 34
-44 135 l1 74 70 8 c97 10 129 23 165 63 26 30 30 43 30 90 0 50 -4 60 -33 89
-18 18 -51 38 -72 44 -45 12 -355 15 -355 3 0 -4 14 -13 30 -19 l30 -11 0
-231 0 -231 -27 -11 c-36 -13 -52 -9 -74 21 -11 14 -64 131 -118 260 -55 129
-106 236 -113 238 -9 2 -46 -77 -113 -243z m-360 180 c21 -20 25 -34 25 -84 0
-33 -3 -67 -6 -76 -9 -23 -57 -45 -99 -45 l-35 0 0 108 c0 60 3 112 7 115 3 4
24 7 45 7 28 0 46 -7 63 -25z m1045 0 c19 -21 24 -36 24 -88 1 -81 -18 -113
-73 -122 -22 -4 -45 -4 -51 0 -11 7 -14 137 -4 198 6 35 9 37 44 37 26 0 43
-7 60 -25z m-578 -205 l37 -90 -75 0 c-41 0 -74 3 -74 6 0 14 64 174 69 174 3
0 23 -41 43 -90z"/>
</g>
</svg>
